# xmcd
#
# Track frame offsets: 
#        150
#        27828
#        43783
#        57025
#        76513
#        98428
#        115725
#        138300
#        160795
#        173160
#        184325
#        195093
#        208875
#        221598
#        237970
#        261085
#
# Disc length: 3666 seconds
#
# Revision: 1
# Processed by: cddbd v1.5.2PL0 Copyright (c) Steve Scherf et al.
# Submitted via: ExactAudioCopy v1.0b3
#
DISCID=cb0e5010
DTITLE=Danzig - Devil Songs (Live USA '89)
DYEAR=1989
DGENRE=Heavy Metal
TTITLE0=Am I Demon
TTITLE1=Twist Of Cain
TTITLE2=Mother
TTITLE3=Soul On Fire
TTITLE4=She Rides
TTITLE5=London Dungeon
TTITLE6=End Of Time
TTITLE7=777
TTITLE8=Time In Hell
TTITLE9=To Walk The Night
TTITLE10=Last Caress
TTITLE11=The Hunter
TTITLE12=Evil Thing
TTITLE13=Not Of This World
TTITLE14=When Death Had No Name
TTITLE15=I'm Evil
EXTD=
EXTT0=
EXTT1=
EXTT2=
EXTT3=
EXTT4=
EXTT5=
EXTT6=
EXTT7=
EXTT8=
EXTT9=
EXTT10=
EXTT11=
EXTT12=
EXTT13=
EXTT14=
EXTT15=
PLAYORDER=
